<svg version="1.0" xmlns="http://www.w3.org/2000/svg" width="1024" height="1024" viewBox="0 0 10240 10240">
  <style>
    svg {
      background: #FEDB35
    }

    text {
      text-shadow: 1px 1px 0px black;
      font-family: Futura, 'Trebuchet MS', Arial, sans-serif;
      font-weight: 700;
    }
  </style>
  <text x="8500" y="4500" font-size="1250" alignment-baseline="middle" text-anchor="middle">
    JS
  </text>
  <g fill="#000">
    <path
      d="M3520 6813 c-296 -12 -703 -103 -948 -214 l-87 -39 -20 26 c-62 81 -111 122 -164 138 -71 21 -79 21 -158 -9 l-68 -26 -37 21 c-48 27 -121 35 -178 20 -34 -9 -58 -26 -102 -72 -56 -59 -58 -60 -89 -49 -94 33 -183 -6 -227 -97 l-27 -57 -593 -3 -592 -2 0 -40 0 -40 593 0 593 0 24 -52 c30 -67 102 -136 183 -176 66 -33 163 -62 209 -62 15 0 28 -1 28 -3 0 -1 -47 -88 -105 -192 -58 -105 -105 -198 -105 -207 0 -10 34 -41 82 -75 116 -83 151 -115 181 -171 40 -73 83 -287 96 -472 6 -85 25 -267 42 -405 26 -212 30 -274 26 -405 -4 -140 -9 -174 -51 -355 -53 -228 -74 -344 -78 -430 l-3 -60 32 2 c54 5 342 103 468 159 195 89 345 192 486 336 74 75 162 186 182 231 8 18 17 25 27 21 8 -3 60 -18 115 -34 418 -119 770 -119 1162 2 73 22 139 38 147 35 8 -3 41 -41 74 -84 84 -110 220 -237 337 -316 116 -76 348 -191 481 -236 139 -47 273 -81 279 -70 12 19 -24 229 -83 489 l-47 205 1 200 c1 250 44 612 89 735 14 41 50 143 79 225 29 83 60 165 70 183 21 41 64 69 196 128 130 58 131 59 120 90 -5 13 -75 124 -155 246 l-145 223 83 26 c162 51 248 114 296 217 l24 52 77 0 77 0 38 -92 c103 -254 227 -441 420 -633 152 -152 251 -225 415 -306 282 -141 521 -167 976 -108 201 27 274 32 459 33 246 1 279 -5 430 -82 105 -53 235 -189 297 -307 81 -158 93 -211 93 -425 0 -207 -9 -250 -86 -422 -55 -123 -63 -168 -45 -233 19 -64 46 -100 97 -125 49 -25 82 -25 135 1 69 33 136 156 199 364 119 394 64 823 -148 1148 -61 93 -196 240 -280 306 -132 101 -303 166 -507 192 -124 15 -347 5 -595 -27 -236 -31 -481 -41 -596 -25 -154 22 -294 77 -439 174 -100 67 -281 251 -351 357 -79 121 -115 188 -105 197 4 4 568 9 1252 11 l1244 3 0 39 0 40 -808 0 c-445 0 -1133 3 -1530 7 l-721 6 -16 43 c-36 95 -125 130 -255 100 -21 -5 -29 1 -55 41 -41 64 -90 88 -180 88 -56 0 -78 -5 -108 -24 l-38 -23 -70 26 c-83 31 -119 32 -176 7 -47 -22 -133 -97 -133 -116 0 -7 -6 -18 -14 -24 -10 -8 -41 0 -132 34 -218 83 -394 126 -699 171 -160 23 -214 26 -490 28 -170 1 -339 1 -375 -1z">
    </path>
  </g>
</svg>