<svg xmlns="http://www.w3.org/2000/svg" width="200" height="100" viewBox="0 0 200 100">
  <style>
    svg {
      background: #FEDB35
    }
    text {
      text-shadow: 1px 1px 0px black;
      font-family: Futura, 'Trebuchet MS', Arial, sans-serif;
      font-weight: 700;
    }
  </style>
  <path d="M71.199 82.61c-5.506-.222-13.077-1.915-17.634-3.98l-1.618-.725-.372.483c-1.154 1.507-2.065 2.27-3.05 2.567-1.322.39-1.47.39-2.94-.167l-1.265-.484-.688.39c-.893.503-2.25.652-3.31.373-.633-.168-1.08-.484-1.898-1.34-1.042-1.097-1.079-1.115-1.656-.91-1.748.613-3.404-.112-4.222-1.805l-.502-1.06-11.03-.056L10 75.859V74.37h22.061l.447-.967c.558-1.246 1.897-2.53 3.404-3.274 1.227-.613 3.032-1.153 3.887-1.153.28 0 .521-.018.521-.056 0-.018-.874-1.636-1.953-3.571-1.079-1.953-1.953-3.683-1.953-3.85 0-.186.632-.763 1.525-1.395 2.158-1.544 2.809-2.14 3.367-3.181.744-1.358 1.544-5.339 1.786-8.78.111-1.581.465-4.966.78-7.533.485-3.944.559-5.097.485-7.534-.075-2.604-.168-3.236-.95-6.603-.985-4.241-1.376-6.399-1.45-7.999l-.056-1.116.595.038c1.005.093 6.362 1.916 8.706 2.957 3.627 1.656 6.417 3.572 9.04 6.25 1.376 1.395 3.013 3.46 3.385 4.297q.223.502.502.39c.15-.055 1.116-.334 2.14-.632 7.775-2.213 14.322-2.213 21.614.037 1.358.41 2.585.707 2.734.651s.763-.762 1.377-1.562c1.562-2.046 4.092-4.409 6.268-5.878 2.158-1.414 6.473-3.553 8.947-4.39 2.586-.874 5.078-1.507 5.19-1.302.223.353-.446 4.26-1.544 9.096l-.874 3.813.018 3.72c.02 4.65.819 11.384 1.656 13.672.26.763.93 2.66 1.47 4.185.539 1.544 1.116 3.07 1.302 3.404.39.763 1.19 1.284 3.645 2.381 2.418 1.08 2.437 1.098 2.232 1.674-.093.242-1.395 2.307-2.883 4.576l-2.697 4.148 1.544.484c3.013.948 4.613 2.12 5.506 4.036l.446.967h2.865l.707-1.71c1.916-4.725 4.222-8.204 7.812-11.775 2.827-2.828 4.669-4.185 7.72-5.692 5.245-2.623 9.69-3.107 18.154-2.009 3.739.502 5.097.595 8.538.614 4.576.018 5.19-.093 7.998-1.525 1.954-.986 4.372-3.516 5.525-5.711 1.507-2.939 1.73-3.925 1.73-7.905 0-3.85-.168-4.65-1.6-7.85-1.023-2.288-1.172-3.125-.837-4.334.353-1.19.856-1.86 1.804-2.325.912-.465 1.526-.465 2.512.018 1.283.614 2.53 2.902 3.701 6.771 2.214 7.329 1.19 15.309-2.753 21.354-1.134 1.73-3.646 4.464-5.208 5.692-2.455 1.879-5.636 3.088-9.43 3.571-2.307.28-6.455.093-11.068-.502-4.39-.576-8.947-.762-11.087-.465-2.864.41-5.468 1.432-8.165 3.237-1.86 1.246-5.227 4.669-6.53 6.64-1.469 2.251-2.139 3.497-1.953 3.665.075.074 10.566.167 23.289.204l23.14.056v1.47h-15.03c-8.277 0-21.075.055-28.46.13l-13.41.111-.298.8c-.67 1.767-2.326 2.418-4.744 1.86-.39-.093-.54.019-1.023.763-.762 1.19-1.674 1.637-3.348 1.637-1.042 0-1.45-.093-2.009-.447l-.707-.427-1.302.483c-1.544.577-2.213.595-3.274.13-.874-.409-2.474-1.804-2.474-2.157 0-.13-.111-.335-.26-.447-.186-.149-.763 0-2.455.633-4.055 1.544-7.329 2.343-13.002 3.18-2.977.428-3.981.484-9.115.521-3.162.019-6.306.019-6.975-.018"></path>
  <text x="159.185" y="41.112" font-size="17.7" alignment-baseline="middle" text-anchor="middle">
    JS
  </text>
</svg>